<svg xmlns="http://www.w3.org/2000/svg" width="103.715" height="119.031" viewBox="0 0 103.715 119.031" id="svg-1">
  <defs id="defs-2">
    <style id="style-3">
</style>
  </defs>
  <path id="_8.svg" data-name="8.svg" class="cls-1" d="M1020.76,114.07a4.38,4.38,0,1,0-6.11-.951A4.39,4.39,0,0,0,1020.76,114.07Zm-12.36,9.062a4.383,4.383,0,1,0-6.11-.951A4.39,4.39,0,0,0,1008.4,123.132Zm-12.361,9.062a4.382,4.382,0,1,0-6.115-.951A4.394,4.394,0,0,0,996.039,132.194Zm20.461,57.944a1.6,1.6,0,0,0-.1-0.289,3.046,3.046,0,0,0-.1-0.292,2.4,2.4,0,0,0-.13-0.23,2.263,2.263,0,0,0-.19-0.312,0.059,0.059,0,0,0-.02-0.033,2,2,0,0,0-.18-0.2,2.341,2.341,0,0,0-.18-0.209l-13.82-13.016a3.131,3.131,0,0,0-4.284,4.567l11.044,10.4c-5.95,4.022-11.087,6.211-14.695,6.211h0a10.208,10.208,0,0,1-4.759-1.141h0c-0.078-.05-0.158-0.1-0.24-0.142-12.614-6.752-27.256-19.477-37.3-32.419l-1.034-1.333c-10.06-12.953-18.772-30.3-22.194-44.193-0.015-.06-0.035-0.133-0.054-0.192a8.457,8.457,0,0,1-.053-4.689,39.505,39.505,0,0,1,7.37-11.867l8.33,13.511a3.127,3.127,0,1,0,5.317-3.294L938.911,94.241a3.1,3.1,0,0,0-.6-0.693c-0.042-.046-0.074-0.1-0.119-0.142a3.118,3.118,0,0,0-4.419.047c-5.565,5.7-9.414,11.426-11.442,17.032a14.409,14.409,0,0,0-.063,8.6c3.63,14.665,12.773,32.89,23.308,46.455l1.034,1.333c10.522,13.556,25.909,26.917,39.219,34.06A16.213,16.213,0,0,0,993.841,203h0c5.714,0,12.946-3.24,21.486-9.63,0.08-.063.15-0.139,0.23-0.209,0.06-.054.12-0.1,0.18-0.156,0.01-.01.01-0.022,0.02-0.032a2.139,2.139,0,0,0,.22-0.291c0.05-.07.11-0.137,0.16-0.21,0.05-.095.09-0.2,0.14-0.3a2.692,2.692,0,0,0,.12-0.256c0.03-.1.05-0.2,0.08-0.3s0.05-.188.07-0.285,0.01-.216.02-0.325c0-.091.01-0.18,0.01-0.271,0-.111-0.03-0.222-0.04-0.333A2.37,2.37,0,0,0,1016.5,190.138Zm5.02-17.705c-3.31-4.137-14.49-13.568-17.35-15.9a8.084,8.084,0,0,0-6.195-2,9.468,9.468,0,0,0-6.174,3.862c-0.915,1.151-2.534,3.165-3.1,3.834-3.761,4.423-6.381,2.95-8.141,1.832-4.533-3.726-9.182-9.348-13.538-14.893-0.055-.079-0.11-0.153-0.167-0.221l-0.027-.038c-0.049-.066-0.1-0.131-0.153-0.193-4.3-5.6-8.615-11.516-11.112-16.853-0.656-1.974-1.456-4.867,3.755-7.447,0.087-.041.226-0.1,0.4-0.174a24.211,24.211,0,0,0,7.431-4.492,8.289,8.289,0,0,0,1.772-9.8,187,187,0,0,0-13.151-21.7c-3.792-5.244-9.354-5.078-12.908-2.712l3.449,5.225c1.094-.729,2.747-1.119,4.4,1.163A182.443,182.443,0,0,1,963.3,112.682a2.018,2.018,0,0,1-.566,2.631,19.25,19.25,0,0,1-5.445,3.154c-0.339.143-.589,0.253-0.726,0.321-4.684,2.319-9.679,6.845-6.873,15.231a3.4,3.4,0,0,0,.127.321c2.761,5.97,7.393,12.327,11.989,18.307,0.024,0.031.049,0.063,0.074,0.093,0.039,0.056.079,0.111,0.12,0.164,4.656,5.931,9.666,11.989,14.755,16.13a3,3,0,0,0,.292.211c7.446,4.749,13.034,1.014,16.409-2.954,0.68-.8,2.473-3.036,3.233-3.991,0.018-.022.066-0.085,0.083-0.108a3.462,3.462,0,0,1,1.952-1.442,2.167,2.167,0,0,1,1.5.641c4.44,3.626,14.15,12.037,16.49,15.048a3.547,3.547,0,0,0,.26.3c2.99,2.98,2.06,4.765,1.76,5.352a3.136,3.136,0,0,0,1.32,4.228,3.075,3.075,0,0,0,1.44.357,3.133,3.133,0,0,0,2.78-1.681C1025.27,183.067,1027,178.007,1021.52,172.433Zm-37.842-31.178a4.382,4.382,0,1,0-6.115-.95A4.392,4.392,0,0,0,983.678,141.255Z" transform="translate(-921.625 -83.969)" fill="#888888" fill-opacity="1" type="solidColor"></path>
</svg>