<svg xmlns="http://www.w3.org/2000/svg" width="119" height="119" viewBox="0 0 119 119" id="svg-1">
  <defs id="defs-2">
    <style id="style-3">
	.cls-1 { fill-rule: evenodd; }
</style>
  </defs>
  <path id="_21.svg" data-name="21.svg" class="cls-1" d="M655.5,118.875a3.132,3.132,0,1,0,0-6.263,3.758,3.758,0,1,1,3.758-3.759,3.132,3.132,0,1,0,6.263,0A10.021,10.021,0,1,0,655.5,118.875Zm-23.671,1.671L650.783,160.7a5.2,5.2,0,0,0,9.4,0l18.944-40.127a3.482,3.482,0,0,0,.16-0.393,25.9,25.9,0,1,0-47.687-.214A4.507,4.507,0,0,0,631.825,120.546ZM655.5,90.263a19.675,19.675,0,0,1,17.945,27.67l-0.044.117-17.912,37.942-17.918-37.953c0-.015-0.008-0.027-0.01-0.032a2.832,2.832,0,0,0-.119-0.327A19.68,19.68,0,0,1,655.5,90.263Zm37.381,72.748a3.758,3.758,0,1,0-3.757-3.758A3.758,3.758,0,0,0,692.877,163.011Zm5.754-57.717h-5.274a3.132,3.132,0,0,0,0,6.263h5.274a10.1,10.1,0,0,1,10.1,10.066v22.5h-27.91a3.131,3.131,0,0,0-3.132,3.131v27.475H640.67a11.927,11.927,0,0,0-8.444-8.439v-18.5a3.9,3.9,0,0,0-3.27-3.669h-26.7v-22.5a10.094,10.094,0,0,1,10.1-10.066h5.158a3.132,3.132,0,0,0,0-6.263h-5.158A16.363,16.363,0,0,0,596,121.623v65.042A16.365,16.365,0,0,0,612.359,203h86.272a16.366,16.366,0,0,0,16.363-16.331V121.623A16.364,16.364,0,0,0,698.631,105.294Zm-96.37,45.092h23.7v15.95a11.932,11.932,0,0,0-8.264,8.393H602.261V150.386Zm23.7,46.347h-13.6a10.1,10.1,0,0,1-10.1-10.068v-5.673h15.472a11.937,11.937,0,0,0,8.23,8.262v7.479Zm51.726,0H632.226V187.3a3.105,3.105,0,0,0-3.042-3.848,5.652,5.652,0,1,1,5.637-5.652,3.131,3.131,0,0,0,3.132,3.131,3.024,3.024,0,0,1,2.283.066h37.453v15.741Zm31.042-10.068a10.1,10.1,0,0,1-10.1,10.068H683.952V180.992h24.779v5.673Zm0-11.936H683.952V150.386h24.779v24.343Z" transform="translate(-596 -84)" fill="#888888" fill-opacity="1" type="solidColor"></path>
</svg>